<svg xmlns="http://www.w3.org/2000/svg" viewBox="0 0 500 500"><g id="freepik--Shadow--inject-24"><ellipse id="freepik--path--inject-24" cx="250" cy="416.24" rx="193.89" ry="11.32" style="fill:#f5f5f5"></ellipse></g><g id="freepik--Sun--inject-24"><path d="M306.27,78.87s.36,18.2,8.37,19.78,19-19.78,19-19.78-6.71,21.2-4.51,24.45,30.68-9.42,30.68-9.42-17.23,20.3-15.34,23.8,15.34,1.92,15.34,1.92-14,2-14.51,8.7,29.55,15.82,29.55,15.82-28.31-1.58-30.38,3.17,6.64,15.57,6.64,15.57-7.79-9.15-15.33-7.66,2,35.59,2,35.59-17.83-22.44-22-22.49-5.52,18.22-5.52,18.22-1.69-18-5.13-17.91-8.38,22.18-8.38,22.18,3.37-23.59,0-25-26.24,27.53-26.24,27.53,12.7-31.8,11.26-34.35-23.18,6.76-23.18,6.76S276,152.05,274.4,146.52s-36-5.94-36-5.94,29-5.14,32.11-8.31-17.13-21.75-17.13-21.75,21.74,5.93,24.35,4.35-7.58-24.53-11.39-30.07c0,0,16.76,19.63,21.9,18.52s4.41-20.1,4.41-20.1,5.88,11.47,9.83,11.47S306.27,78.87,306.27,78.87Z" style="fill:#8BEEA7"></path><path d="M306.27,78.87s.36,18.2,8.37,19.78,19-19.78,19-19.78-6.71,21.2-4.51,24.45,30.68-9.42,30.68-9.42-17.23,20.3-15.34,23.8,15.34,1.92,15.34,1.92-14,2-14.51,8.7,29.55,15.82,29.55,15.82-28.31-1.58-30.38,3.17,6.64,15.57,6.64,15.57-7.79-9.15-15.33-7.66,2,35.59,2,35.59-17.83-22.44-22-22.49-5.52,18.22-5.52,18.22-1.69-18-5.13-17.91-8.38,22.18-8.38,22.18,3.37-23.59,0-25-26.24,27.53-26.24,27.53,12.7-31.8,11.26-34.35-23.18,6.76-23.18,6.76S276,152.05,274.4,146.52s-36-5.94-36-5.94,29-5.14,32.11-8.31-17.13-21.75-17.13-21.75,21.74,5.93,24.35,4.35-7.58-24.53-11.39-30.07c0,0,16.76,19.63,21.9,18.52s4.41-20.1,4.41-20.1,5.88,11.47,9.83,11.47S306.27,78.87,306.27,78.87Z" style="fill:#fff;opacity:0.8"></path><circle cx="310.26" cy="132.4" r="30.47" transform="translate(110.12 403.95) rotate(-76.72)" style="fill:#fff;opacity:0.4"></circle></g><g id="freepik--Wall--inject-24"><rect x="49.75" y="351.44" width="394.14" height="51.49" style="fill:#263238"></rect><rect x="49.75" y="351.44" width="394.14" height="51.49" style="fill:#fff;opacity:0.6000000000000001"></rect><rect x="56.11" y="358.12" width="35.97" height="11.12" style="fill:#fff;opacity:0.2"></rect><rect x="93.78" y="358.12" width="35.97" height="11.12" style="fill:#fff;opacity:0.2"></rect><rect x="182.47" y="375.07" width="35.97" height="11.12" style="fill:#fff;opacity:0.2"></rect><rect x="249.35" y="356.77" width="35.97" height="11.12" style="fill:#fff;opacity:0.2"></rect><rect x="269.12" y="370.26" width="35.97" height="11.12" style="fill:#fff;opacity:0.2"></rect><rect x="400.46" y="388.44" width="35.97" height="11.12" style="fill:#fff;opacity:0.2"></rect><rect x="361.89" y="388.62" width="35.97" height="11.12" style="fill:#fff;opacity:0.2"></rect><rect x="379.87" y="375.07" width="35.97" height="11.12" style="fill:#fff;opacity:0.2"></rect><rect x="74.09" y="370.26" width="35.97" height="11.12" style="fill:#fff;opacity:0.2"></rect><rect x="167.05" y="388.44" width="35.97" height="11.12" style="fill:#fff;opacity:0.2"></rect><rect x="47.92" y="344.11" width="397.98" height="10.66" style="fill:#263238"></rect><rect x="47.92" y="344.11" width="397.98" height="10.66" style="fill:#fff;opacity:0.7000000000000001"></rect></g><g id="freepik--solar-panel--inject-24"><rect x="139.13" y="399.12" width="2.87" height="14" style="fill:#8BEEA7"></rect><rect x="217.86" y="399.12" width="2.87" height="14" style="fill:#8BEEA7"></rect><rect x="241.02" y="303.07" width="13.36" height="110.11" style="fill:#8BEEA7"></rect><rect x="139.13" y="399.12" width="2.87" height="14" style="fill:#fff;opacity:0.6000000000000001"></rect><rect x="217.86" y="399.12" width="2.87" height="14" style="fill:#fff;opacity:0.6000000000000001"></rect><rect x="241.02" y="303.07" width="13.36" height="110.11" style="fill:#fff;opacity:0.6000000000000001"></rect><polygon points="272.58 415.56 122.99 415.56 127.23 410.69 268.33 410.69 272.58 415.56" style="fill:#8BEEA7"></polygon><polygon points="272.58 415.56 229.15 415.56 233.4 410.69 268.33 410.69 272.58 415.56" style="fill:#fff;opacity:0.2"></polygon><path d="M182.35,295.11,135.75,402.3a2.36,2.36,0,0,0,2.16,3.29h79.88a3,3,0,0,0,2.75-1.8l46.6-107.19a2.35,2.35,0,0,0-2.16-3.29H185.1A3,3,0,0,0,182.35,295.11Z" style="fill:#8BEEA7"></path><path d="M182.35,295.11,135.75,402.3a2.36,2.36,0,0,0,2.16,3.29h79.88a3,3,0,0,0,2.75-1.8l46.6-107.19a2.35,2.35,0,0,0-2.16-3.29H185.1A3,3,0,0,0,182.35,295.11Z" style="fill:#fff;opacity:0.7000000000000001"></path><polygon points="209.74 362.33 223.84 329.89 192.93 329.89 178.82 362.33 209.74 362.33" style="opacity:0.2;isolation:isolate"></polygon><path d="M140.73,400.52a1.2,1.2,0,1,0,1.2,1.2A1.2,1.2,0,0,0,140.73,400.52Z" style="opacity:0.2;isolation:isolate"></path><path d="M215.2,400.52a1.2,1.2,0,1,0,1.21,1.2A1.2,1.2,0,0,0,215.2,400.52Z" style="opacity:0.2;isolation:isolate"></path><path d="M186.32,296.32a1.2,1.2,0,1,0,1.2,1.2A1.21,1.21,0,0,0,186.32,296.32Z" style="opacity:0.2;isolation:isolate"></path><path d="M260.79,296.32a1.2,1.2,0,1,0,1.2,1.2A1.2,1.2,0,0,0,260.79,296.32Z" style="opacity:0.2;isolation:isolate"></path><rect x="270.48" y="399.12" width="2.87" height="14" style="fill:#8BEEA7"></rect><rect x="349.2" y="399.12" width="2.87" height="14" style="fill:#8BEEA7"></rect><rect x="372.37" y="303.07" width="13.36" height="110.11" style="fill:#8BEEA7"></rect><rect x="270.48" y="399.12" width="2.87" height="14" style="fill:#fff;opacity:0.6000000000000001"></rect><rect x="349.2" y="399.12" width="2.87" height="14" style="fill:#fff;opacity:0.6000000000000001"></rect><rect x="372.37" y="303.07" width="13.36" height="110.11" style="fill:#fff;opacity:0.6000000000000001"></rect><polygon points="415.98 254.4 349.84 406.53 251.99 406.53 318.13 254.4 415.98 254.4" style="fill:#263238"></polygon><polygon points="415.98 254.4 349.84 406.53 251.99 406.53 318.13 254.4 415.98 254.4" style="fill:#fff;opacity:0.6000000000000001"></polygon><polygon points="375.36 342.42 353.31 342.42 344.68 362.28 366.73 362.28 375.36 342.42" style="fill:#263238"></polygon><polygon points="335.17 384.16 357.22 384.16 365.85 364.3 343.8 364.3 335.17 384.16" style="fill:#263238"></polygon><polygon points="351.33 342.42 329.28 342.42 320.65 362.28 342.7 362.28 351.33 342.42" style="fill:#263238"></polygon><polygon points="403.9 276.77 381.85 276.77 373.22 296.63 395.27 296.63 403.9 276.77" style="fill:#263238"></polygon><polygon points="311.13 384.16 333.18 384.16 341.82 364.3 319.77 364.3 311.13 384.16" style="fill:#263238"></polygon><polygon points="384.88 320.54 362.82 320.54 354.19 340.4 376.24 340.4 384.88 320.54" style="fill:#263238"></polygon><polygon points="394.39 298.66 372.34 298.66 363.7 318.51 385.75 318.51 394.39 298.66" style="fill:#263238"></polygon><polygon points="304.15 340.4 312.78 320.54 291.36 320.54 282.73 340.4 304.15 340.4" style="fill:#263238"></polygon><polygon points="294.63 362.28 303.27 342.42 281.85 342.42 273.21 362.28 294.63 362.28" style="fill:#263238"></polygon><polygon points="331.81 276.77 310.38 276.77 301.75 296.63 323.18 296.63 331.81 276.77" style="fill:#263238"></polygon><polygon points="285.12 384.16 293.76 364.3 272.33 364.3 263.7 384.16 285.12 384.16" style="fill:#263238"></polygon><polygon points="313.66 318.51 322.3 298.66 300.87 298.66 292.24 318.51 313.66 318.51" style="fill:#263238"></polygon><polygon points="412.75 256.43 390.7 256.43 382.73 274.75 404.78 274.75 412.75 256.43" style="fill:#263238"></polygon><polygon points="356.34 386.18 334.29 386.18 326.32 404.51 348.37 404.51 356.34 386.18" style="fill:#263238"></polygon><polygon points="284.24 386.18 262.82 386.18 254.85 404.51 276.27 404.51 284.24 386.18" style="fill:#263238"></polygon><polygon points="332.69 274.75 340.65 256.43 319.23 256.43 311.26 274.75 332.69 274.75" style="fill:#263238"></polygon><polygon points="336.81 320.54 314.76 320.54 306.13 340.4 328.18 340.4 336.81 320.54" style="fill:#263238"></polygon><polygon points="327.3 342.42 305.25 342.42 296.62 362.28 318.67 362.28 327.3 342.42" style="fill:#263238"></polygon><polygon points="388.72 256.43 366.67 256.43 358.7 274.75 380.75 274.75 388.72 256.43" style="fill:#263238"></polygon><polygon points="332.31 386.18 310.25 386.18 302.29 404.51 324.34 404.51 332.31 386.18" style="fill:#263238"></polygon><polygon points="379.87 276.77 357.82 276.77 349.19 296.63 371.24 296.63 379.87 276.77" style="fill:#263238"></polygon><polygon points="370.36 298.66 348.31 298.66 339.67 318.51 361.72 318.51 370.36 298.66" style="fill:#263238"></polygon><polygon points="287.1 384.16 309.15 384.16 317.79 364.3 295.74 364.3 287.1 384.16" style="fill:#263238"></polygon><polygon points="300.31 404.51 308.27 386.18 286.22 386.18 278.26 404.51 300.31 404.51" style="fill:#263238"></polygon><polygon points="364.69 256.43 342.64 256.43 334.67 274.75 356.72 274.75 364.69 256.43" style="fill:#263238"></polygon><polygon points="360.84 320.54 338.79 320.54 330.16 340.4 352.21 340.4 360.84 320.54" style="fill:#263238"></polygon><polygon points="355.84 276.77 333.79 276.77 325.16 296.63 347.21 296.63 355.84 276.77" style="fill:#263238"></polygon><polygon points="346.33 298.66 324.28 298.66 315.64 318.51 337.69 318.51 346.33 298.66" style="fill:#263238"></polygon><g style="opacity:0.1"><polygon points="381.26 254.4 293.65 310.73 318.13 254.4 381.26 254.4" style="fill:#fff"></polygon><polygon points="409.3 254.4 282.77 335.75 288.73 322.04 393.94 254.4 409.3 254.4" style="fill:#fff"></polygon><polygon points="410.3 267.47 407.31 274.33 271.51 361.63 274.5 354.76 410.3 267.47" style="fill:#fff"></polygon></g><g style="opacity:0.1"><polygon points="354.9 394.9 349.84 406.53 336.8 406.53 354.9 394.9" style="fill:#fff"></polygon><polygon points="363.49 375.13 358.78 385.97 326.8 406.53 314.65 406.53 363.49 375.13" style="fill:#fff"></polygon><polygon points="372.36 354.73 370.01 360.13 297.83 406.53 291.77 406.53 372.36 354.73" style="fill:#fff"></polygon></g><polygon points="407.98 415.56 258.38 415.56 262.63 410.69 403.73 410.69 407.98 415.56" style="fill:#8BEEA7"></polygon><polygon points="407.98 415.56 364.55 415.56 368.8 410.69 403.73 410.69 407.98 415.56" style="fill:#fff;opacity:0.2"></polygon></g><g id="freepik--tool-box--inject-24"><polygon points="222.12 389.91 199.7 389.91 199.7 391.56 202.4 391.56 207.94 398.45 208.94 398.45 203.39 391.56 222.12 391.56 222.12 389.91" style="fill:#263238"></polygon><polygon points="222.12 389.91 199.7 389.91 199.7 391.56 202.4 391.56 207.94 398.45 208.94 398.45 203.39 391.56 222.12 391.56 222.12 389.91" style="fill:#fff;opacity:0.2"></polygon><path d="M252.17,383.87a14.12,14.12,0,0,0-6.88-8h-33.7l-4.26,2,6.56,19.47h33.69l4.27-2A16.55,16.55,0,0,0,252.17,383.87Z" style="fill:#263238"></path><rect x="193.47" y="397.33" width="54.23" height="21.99" style="fill:#263238"></rect><rect x="214" y="397.33" width="33.7" height="21.99" style="fill:#fff;opacity:0.2"></rect><path d="M251.85,395.31H218.16a16.55,16.55,0,0,0,.32-11.44,14.12,14.12,0,0,0-6.89-8h33.7a14.12,14.12,0,0,1,6.88,8A16.55,16.55,0,0,1,251.85,395.31Z" style="fill:#fff;opacity:0.2"></path><polygon points="251.85 395.31 247.58 397.33 213.89 397.33 218.16 395.31 251.85 395.31" style="fill:#fff;opacity:0.1"></polygon><path d="M228.05,384.16a29.11,29.11,0,0,0,10.49,2.75c5.41.2,7-2.75,7-2.75l-.75-2.31s-1.3,2.12-5.19,2.54-12.19-2.62-12.19-2.62Z" style="opacity:0.2;isolation:isolate"></path><path d="M227.4,381.77s5.34-2.64,10.15-2.18a15.28,15.28,0,0,1,7.23,2.26l.75,2.31s-7.24-4.48-17.48,0Z" style="fill:#263238"></path></g><g id="freepik--Character--inject-24"><rect x="95.41" y="191.86" width="148.92" height="97.85" transform="translate(-73.06 407.58) rotate(-89.27)" style="fill:#263238"></rect><rect x="95.41" y="191.86" width="148.92" height="97.85" transform="translate(-73.06 407.58) rotate(-89.27)" style="fill:#fff;opacity:0.6000000000000001"></rect><rect x="195.43" y="251.63" width="19.44" height="22.05" transform="translate(-60.1 464.44) rotate(-89.27)" style="fill:#263238"></rect><rect x="195.15" y="273.05" width="19.44" height="22.05" transform="translate(-81.79 485.31) rotate(-89.27)" style="fill:#263238"></rect><rect x="171.4" y="251.32" width="19.44" height="22.05" transform="translate(-83.52 440.11) rotate(-89.27)" style="fill:#263238"></rect><rect x="196.25" y="187.38" width="19.44" height="22.05" transform="translate(4.95 401.82) rotate(-89.27)" style="fill:#263238"></rect><rect x="171.13" y="272.74" width="19.44" height="22.05" transform="translate(-105.2 460.98) rotate(-89.27)" style="fill:#263238"></rect><rect x="195.7" y="230.21" width="19.44" height="22.05" transform="translate(-38.42 443.57) rotate(-89.27)" style="fill:#263238"></rect><rect x="195.97" y="208.79" width="19.44" height="22.05" transform="translate(-16.73 422.69) rotate(-89.27)" style="fill:#263238"></rect><rect x="123.93" y="229.61" width="19.44" height="21.42" transform="translate(-108.36 370.89) rotate(-89.27)" style="fill:#263238"></rect><rect x="123.65" y="251.03" width="19.44" height="21.42" transform="translate(-130.05 391.76) rotate(-89.27)" style="fill:#263238"></rect><rect x="124.47" y="186.78" width="19.44" height="21.42" transform="translate(-64.99 329.15) rotate(-89.27)" style="fill:#263238"></rect><rect x="123.38" y="272.44" width="19.44" height="21.42" transform="translate(-151.73 412.64) rotate(-89.27)" style="fill:#263238"></rect><rect x="124.2" y="208.19" width="19.44" height="21.42" transform="translate(-86.67 350.02) rotate(-89.27)" style="fill:#263238"></rect><rect x="197.26" y="166.71" width="17.94" height="22.05" transform="translate(25.88 381.68) rotate(-89.27)" style="fill:#263238"></rect><rect x="195.64" y="293.71" width="17.94" height="22.05" transform="translate(-102.71 505.45) rotate(-89.27)" style="fill:#263238"></rect><rect x="123.87" y="293.11" width="17.94" height="21.42" transform="translate(-172.66 432.78) rotate(-89.27)" style="fill:#263238"></rect><rect x="125.49" y="166.11" width="17.94" height="21.42" transform="translate(-44.06 309.01) rotate(-89.27)" style="fill:#263238"></rect><rect x="147.64" y="229.6" width="19.44" height="22.05" transform="translate(-85.25 394.91) rotate(-89.27)" style="fill:#263238"></rect><rect x="147.37" y="251.02" width="19.44" height="22.05" transform="translate(-106.93 415.78) rotate(-89.27)" style="fill:#263238"></rect><rect x="173.23" y="166.4" width="17.94" height="22.05" transform="translate(2.46 357.35) rotate(-89.27)" style="fill:#263238"></rect><rect x="171.61" y="293.41" width="17.94" height="22.05" transform="translate(-126.13 481.12) rotate(-89.27)" style="fill:#263238"></rect><rect x="172.22" y="187.07" width="19.44" height="22.05" transform="translate(-18.46 377.49) rotate(-89.27)" style="fill:#263238"></rect><rect x="171.94" y="208.49" width="19.44" height="22.05" transform="translate(-40.15 398.36) rotate(-89.27)" style="fill:#263238"></rect><rect x="147.1" y="272.43" width="19.44" height="22.05" transform="translate(-128.62 436.65) rotate(-89.27)" style="fill:#263238"></rect><rect x="147.58" y="293.1" width="17.94" height="22.05" transform="translate(-149.54 456.79) rotate(-89.27)" style="fill:#263238"></rect><rect x="149.2" y="166.1" width="17.94" height="22.05" transform="translate(-20.95 333.02) rotate(-89.27)" style="fill:#263238"></rect><rect x="171.67" y="229.91" width="19.44" height="22.05" transform="translate(-61.83 419.24) rotate(-89.27)" style="fill:#263238"></rect><rect x="148.19" y="186.76" width="19.44" height="22.05" transform="translate(-41.88 353.16) rotate(-89.27)" style="fill:#263238"></rect><rect x="147.92" y="208.18" width="19.44" height="22.05" transform="translate(-63.56 374.03) rotate(-89.27)" style="fill:#263238"></rect><g style="opacity:0.1"><polygon points="185.03 166.51 121.2 220.84 121.91 165.71 185.03 166.51" style="fill:#fff"></polygon><polygon points="213.07 166.87 120.89 245.33 121.06 231.91 197.71 166.67 213.07 166.87" style="fill:#fff"></polygon><polygon points="219.58 179.74 219.49 186.47 120.56 270.66 120.65 263.94 219.58 179.74" style="fill:#fff"></polygon></g><g style="opacity:0.1"><polygon points="217.99 304.47 217.84 315.86 204.81 315.69 217.99 304.47" style="fill:#fff"></polygon><polygon points="218.24 285.13 218.1 295.73 194.81 315.57 182.66 315.41 218.24 285.13" style="fill:#fff"></polygon><polygon points="218.49 265.15 218.42 270.44 165.84 315.2 159.78 315.12 218.49 265.15" style="fill:#fff"></polygon></g><g id="freepik--group--inject-24"><path d="M115.84,212.36s-12.07,5.35-16,.56,17.45-30.07,17.45-30.07.35-7.43,1.41-8.74a13.67,13.67,0,0,1,3.45-2.55l.79,14.61-2.22.21s-11.44,15.4-11.23,16.73,6.34-1.46,6.34-1.46Z" style="fill:#e4897b"></path><path d="M143.83,250.74s10-21.33,9.26-26.37-17.56,16.83-17.56,16.83l-1.35,7.49Z" style="fill:#8BEEA7"></path><path d="M143.83,250.74s10-21.33,9.26-26.37-17.56,16.83-17.56,16.83l-1.35,7.49Z" style="fill:#fff;opacity:0.4"></path><path d="M143.15,250.18s10-21.33,9.25-26.38-17.56,16.83-17.56,16.83l-1.35,7.49Z" style="opacity:0.2;isolation:isolate"></path><polygon points="160.1 412.35 167.96 413.17 168.35 408.62 169.43 396.24 161.57 395.4 160.38 409.09 160.1 412.35" style="fill:#e4897b"></polygon><polygon points="91.86 411.35 99.47 411.35 99.84 409.64 99.89 409.42 102.26 398.43 102.31 398.21 103.22 394 95.6 394 91.86 411.35" style="fill:#e4897b"></polygon><polygon points="161.57 395.4 160.38 409.09 168.35 408.62 169.43 396.24 161.57 395.4" style="opacity:0.2;isolation:isolate"></polygon><polygon points="92.08 410.39 92.09 410.39 99.88 409.42 99.89 409.42 102.2 398.82 102.19 398.82 94.45 399.43 92.15 410.06 92.08 410.39" style="opacity:0.2;isolation:isolate"></polygon><path d="M100.52,410.89H91.27a.66.66,0,0,0-.64.53l-1.51,6.77a1.14,1.14,0,0,0,.87,1.34l.25,0c3-.05,5.17-.23,8.93-.23,2.31,0,9.29.24,12.49.24s3.61-3.16,2.3-3.45c-5.87-1.28-10.28-3.05-12.16-4.73A1.85,1.85,0,0,0,100.52,410.89Z" style="fill:#263238"></path><path d="M168.79,410.65h-9.25a.67.67,0,0,0-.65.52l-1.5,6.78a1.12,1.12,0,0,0,.87,1.33,1,1,0,0,0,.25,0c3-.05,5.17-.23,8.92-.23,2.32,0,9.3.24,12.49.24s3.62-3.16,2.31-3.45c-5.87-1.28-10.28-3.05-12.16-4.73A1.85,1.85,0,0,0,168.79,410.65Z" style="fill:#263238"></path><path d="M170.15,405.54l-11.24.36c4.09-75.1,6-78.93-30.46-114.4-.85,10.73-1.81,21.86-2.75,31.14-.59,5.74-.76,10.75-1.72,14.43-6.49,24.87-22.1,68.9-22.1,68.9l-11,.49s13.72-60.34,15.13-80c1.85-25.8-14.19-55.52,1.41-83.45l36.39,7.08-.26,9C178.32,309.86,184.68,320.84,170.15,405.54Z" style="fill:#8BEEA7"></path><path d="M170.15,405.54l-11.24.36c4.09-75.1,6-78.93-30.46-114.4-.85,10.73-1.81,21.86-2.75,31.14-.59,5.74-.76,10.75-1.72,14.43-6.49,24.87-22.1,68.9-22.1,68.9l-11,.49s13.72-60.34,15.13-80c1.85-25.8-14.19-55.52,1.41-83.45l36.39,7.08-.26,9C178.32,309.86,184.68,320.84,170.15,405.54Z" style="fill:#fff;opacity:0.4"></path><path d="M163,223.15s20.7,3.74,24.65,3.1S212.5,209.1,212.5,209.1s6.9-.38,7.26-2.72,1.3-6.53-.68-6.39-7.76,2.71-7.76,2.71l-.75,1.92s-23,13.91-23.91,14.21-20.72-5.12-20.72-5.12Z" style="fill:#e4897b"></path><path d="M125.53,196c-6.8,0-12.65,4.39-18.87,7.51l4.48,11.16,14.28-.9Z" style="fill:#8BEEA7"></path><path d="M159.79,194.36a9.73,9.73,0,0,1-.69.74,9.49,9.49,0,0,1-5,2.56,10.17,10.17,0,0,1-1.45.14,8.57,8.57,0,0,1-8.49-6c-1.56-4.62.28-8.17,2.92-14.43a9.28,9.28,0,0,1,15.59-2.67C167.41,180.07,163.79,189.53,159.79,194.36Z" style="fill:#e4897b"></path><path d="M154.07,197.66a10.17,10.17,0,0,1-1.45.14,8.63,8.63,0,0,1-6.81-3,10.19,10.19,0,0,1,2.1-1.53A13.36,13.36,0,0,1,154.07,197.66Z" style="opacity:0.2;isolation:isolate"></path><path d="M166.1,177.94c-.36,0-3.14,2.37-3.32,3.25a11.63,11.63,0,0,1-5.51,6.8c-2.36,1.07-6,6.15-6,6.15s-3.92-3.29-8-3.36a22.65,22.65,0,0,1-.07-19.22Z" style="fill:#263238"></path><path d="M166.1,177.94c-.36,0-3.14,2.37-3.32,3.25a11.63,11.63,0,0,1-5.51,6.8c-2.36,1.07-6,6.15-6,6.15s-3.92-3.29-8-3.36a22.65,22.65,0,0,1-.07-19.22Z" style="fill:#fff;opacity:0.2"></path><path d="M155.52,185.94a4.41,4.41,0,0,0,.7,3.69c1,1.13,2.66-.21,3.37-2.13.63-1.7.91-4.4-.57-4.74S155.89,184.09,155.52,185.94Z" style="fill:#e4897b"></path><path d="M161.13,180.06s.73,16.16-11.7,16.3V197s11.16,1,13.76-15.71Z" style="fill:#263238"></path><path d="M141.69,176a5.25,5.25,0,0,0,3.08,2.66c2.4.89,13.83-2.08,13.83-2.08l2.05,1.53s-11.5,3.79-15.88,3.16-3.68-3.88-3.68-3.88Z" style="fill:#fff"></path><path d="M135.53,197.8c1.66,4.2,13.9,5.31,13.9,5.31a12.5,12.5,0,0,1,0-3.23,8.71,8.71,0,0,1,1.24-3.22,18.72,18.72,0,0,1,1.07-1.61l-8-4.24C141.9,194.14,140,196,135.53,197.8Z" style="fill:#e4897b"></path><path d="M168.56,182.71a2,2,0,0,1-.41,2.24c-1,.9-3.24,0-3.24,0s-7.64-12.13-22.9-11.73c0,0-1.12-1.57-.89-2.63s2.43-1.79,2.43-1.79A21.66,21.66,0,0,1,155.41,163c7.19-.92,14.65,6.73,15,8.61s-1.42,4.21-1.42,4.21A16.92,16.92,0,0,1,168.56,182.71Z" style="fill:#8BEEA7"></path><path d="M168.56,182.71c-7.29-12.42-25-13.91-25-13.91a20.24,20.24,0,0,1,4-3c.14,1.54,1.91,2.17,3.34,2.31,2,.2,10.14-2.05,14.06.72a9.61,9.61,0,0,1,4.05,7A16.92,16.92,0,0,1,168.56,182.71Z" style="opacity:0.2;isolation:isolate"></path><path d="M128.45,291.45c-.85,10.73-1.81,21.89-2.75,31.16-1.37-13.39-3.06-22.94-3.06-22.94s-1.57-1.29-5.91-8.22,0-19.85,0-19.85C116.59,283.61,128.45,291.45,128.45,291.45Z" style="opacity:0.2;isolation:isolate"></path><polygon points="171.4 404.33 170.86 407.48 157.66 407.48 157.66 404.57 171.4 404.33" style="fill:#8BEEA7"></polygon><polygon points="103.18 405.54 101.91 408.45 89.9 408.45 90.12 405.54 103.18 405.54" style="fill:#8BEEA7"></polygon><path d="M161.68,207.77c6.42,3.85,11.5,7.53,11.5,7.53l-4.63,9.87-18.49-3.23a60.75,60.75,0,0,1,4.83-9.16C158.11,207.73,161.68,207.77,161.68,207.77Z" style="fill:#8BEEA7"></path><polygon points="171.4 404.33 170.86 407.48 157.66 407.48 157.66 404.57 171.4 404.33" style="fill:#fff;opacity:0.4"></polygon><polygon points="103.18 405.54 101.91 408.45 89.9 408.45 90.12 405.54 103.18 405.54" style="fill:#fff;opacity:0.4"></polygon><polygon points="106.17 244.04 118.73 246.42 117.96 249.55 104.79 246.93 106.17 244.04" style="fill:#263238"></polygon><polygon points="120.81 246.81 136.26 249.75 135.98 253.13 120.13 249.98 120.81 246.81" style="fill:#263238"></polygon><polygon points="144.56 251.32 144.52 254.84 138.18 253.57 138.37 250.14 144.56 251.32" style="fill:#263238"></polygon><path d="M107.46,243s8.09-38.29,16.35-46.58c0,0,21-3.81,37.87,11.34,0,0-14.3,24.53-17.83,42.32Z" style="fill:#8BEEA7"></path><path d="M120.81,247.71l-.17,0-2-.45a.76.76,0,0,1-.54-.5.73.73,0,0,1,.15-.72l1.44-1.66a.75.75,0,0,1,.73-.24.72.72,0,0,1,.55.53l.58,2.12a.76.76,0,0,1-.72.94Zm-.58-3.11a.26.26,0,0,0-.18.08l-1.45,1.67a.23.23,0,0,0,0,.24.22.22,0,0,0,.17.16h0l2,.45a.2.2,0,0,0,.23-.07.22.22,0,0,0,.06-.23l-.57-2.12a.23.23,0,0,0-.18-.17Z" style="fill:#fff"></path><path d="M133.53,211.31a.77.77,0,0,1-.3-.06l-1.9-.84h0a.74.74,0,0,1-.43-.59.71.71,0,0,1,.28-.68l1.75-1.35a.72.72,0,0,1,.76-.09.71.71,0,0,1,.43.63l.15,2.19a.73.73,0,0,1-.32.66A.7.7,0,0,1,133.53,211.31Zm-.15-3.18a.23.23,0,0,0-.15.05l-1.74,1.35a.28.28,0,0,0-.1.23.25.25,0,0,0,.15.19h0l1.89.84a.26.26,0,0,0,.24,0,.24.24,0,0,0,.1-.22l-.14-2.19a.26.26,0,0,0-.15-.21Z" style="fill:#fff"></path><path d="M131.62,209.69s-5.89,10.95-12.13,33.42l2.4.71s6.31-23.4,11.6-33.26Z" style="fill:#263238"></path><path d="M120.13,245.32h0a.25.25,0,0,1-.2-.29l.3-1.41a.26.26,0,0,1,.3-.2.25.25,0,0,1,.19.3l-.3,1.41A.25.25,0,0,1,120.13,245.32Z" style="fill:#fff"></path><path d="M122,244.07H122l-2.53-.71a.26.26,0,0,1-.18-.31.25.25,0,0,1,.31-.17l2.54.71a.25.25,0,0,1-.07.49Z" style="fill:#fff"></path><path d="M133.49,208.47a45.53,45.53,0,0,1,17.85-8.08l2.73,1.44s-7.24,1.11-20.42,8.58Z" style="fill:#263238"></path><path d="M131.62,209.47l1.49-1s.16-10.16,1.16-12.5l-1.69.06A61.33,61.33,0,0,0,131.62,209.47Z" style="fill:#263238"></path><path d="M209.16,204.75l2.86,5.76.79-.71s7.08-.31,7.53-1.14,2.17-9.16,1-9.62-10.07,2.63-10.41,2.71-.76,2.39-.76,2.39Z" style="fill:#8BEEA7"></path><path d="M116.26,182.85l4.14,4.88.62-1,2-.6-.79-14.61s-3.83,2.29-4,2.55-1.16,8.6-1.16,8.6Z" style="fill:#8BEEA7"></path></g></g></svg>